<?xml version="1.0" standalone="no"?>
<!DOCTYPE svg PUBLIC "-//W3C//DTD SVG 20010904//EN"
 "http://www.w3.org/TR/2001/REC-SVG-20010904/DTD/svg10.dtd">
<svg version="1.0" xmlns="http://www.w3.org/2000/svg"
 width="400.000000pt" height="400.000000pt" viewBox="0 0 400.000000 400.000000"
 preserveAspectRatio="xMidYMid meet">
<metadata>
Created by potrace 1.14, written by Peter Selinger 2001-2017
</metadata>
<g transform="translate(0.000000,400.000000) scale(0.100000,-0.100000)"
fill="#000000" stroke="none">
<path d="M1479 3936 c-2 -2 -38 -7 -79 -11 -41 -4 -83 -9 -92 -10 -9 -2 -48
-7 -85 -10 -37 -4 -76 -9 -86 -11 -10 -2 -45 -6 -78 -9 -33 -4 -68 -8 -78 -10
-9 -2 -47 -6 -83 -9 -37 -4 -75 -8 -85 -10 -10 -2 -52 -7 -93 -11 -41 -4 -82
-9 -90 -10 -15 -3 -155 -18 -175 -19 -15 -1 -17 -332 -2 -333 20 -1 282 -64
287 -69 6 -7 6 -2934 0 -2945 -6 -8 -99 -30 -184 -43 -22 -4 -42 -9 -45 -11
-6 -7 -7 -345 -1 -346 3 -1 310 -2 683 -3 433 -1 681 2 685 9 3 5 6 83 6 173
l1 163 -35 9 c-19 5 -72 16 -117 26 -46 10 -83 22 -84 28 0 6 -2 83 -3 171 -2
88 -7 195 -11 238 l-7 78 85 87 c46 48 122 126 168 175 45 48 86 84 90 80 4
-5 53 -116 109 -248 56 -132 111 -259 122 -283 51 -115 128 -297 128 -303 0
-4 -12 -10 -27 -14 -16 -5 -32 -10 -38 -11 -5 -2 -31 -9 -58 -16 l-47 -11 2
-176 3 -176 695 0 695 0 0 174 0 175 -30 8 c-16 5 -43 11 -60 13 -16 3 -52 11
-79 18 l-49 13 -87 169 c-48 94 -165 323 -260 510 -95 187 -220 432 -278 544
l-105 205 75 70 c41 39 99 94 129 121 30 28 91 84 136 126 72 67 87 77 130 83
72 10 107 15 230 37 61 10 114 19 117 19 3 0 6 75 6 168 l0 167 -677 0 -678 0
0 -167 -1 -167 31 -5 c16 -3 48 -8 70 -11 22 -3 54 -7 70 -10 17 -3 48 -7 70
-10 64 -9 95 -16 95 -22 0 -3 -31 -37 -68 -77 -38 -39 -100 -104 -138 -145
-38 -41 -80 -86 -94 -101 -47 -50 -266 -285 -327 -350 -34 -36 -78 -84 -98
-107 -21 -24 -40 -43 -44 -43 -4 0 -4 26 0 58 4 31 8 560 8 1174 l1 1117 -57
44 c-73 55 -108 78 -114 73z"/>
</g>
</svg>
